<?xml version="1.0" encoding="utf-8" standalone="no"?>
<!DOCTYPE svg PUBLIC "-//W3C//DTD SVG 1.1//EN"
  "http://www.w3.org/Graphics/SVG/1.1/DTD/svg11.dtd">
<svg xmlns:xlink="http://www.w3.org/1999/xlink" width="460.8pt" height="345.6pt" viewBox="0 0 460.8 345.6" xmlns="http://www.w3.org/2000/svg" version="1.1">
 <metadata>
  <rdf:RDF xmlns:dc="http://purl.org/dc/elements/1.1/" xmlns:cc="http://creativecommons.org/ns#" xmlns:rdf="http://www.w3.org/1999/02/22-rdf-syntax-ns#">
   <cc:Work>
    <dc:type rdf:resource="http://purl.org/dc/dcmitype/StillImage"/>
    <dc:date>2025-08-16T13:13:08.305323</dc:date>
    <dc:format>image/svg+xml</dc:format>
    <dc:creator>
     <cc:Agent>
      <dc:title>Matplotlib v3.10.5, https://matplotlib.org/</dc:title>
     </cc:Agent>
    </dc:creator>
   </cc:Work>
  </rdf:RDF>
 </metadata>
 <defs>
  <style type="text/css">*{stroke-linejoin: round; stroke-linecap: butt}</style>
 </defs>
 <g id="figure_1">
  <g id="patch_1">
   <path d="M 0 345.6 
L 460.8 345.6 
L 460.8 0 
L 0 0 
z
" style="fill: #ffffff"/>
  </g>
  <g id="axes_1">
   <g id="patch_2">
    <path d="M 47.855 303.64 
L 450 303.64 
L 450 26.16 
L 47.855 26.16 
z
" style="fill: #ffffff"/>
   </g>
   <g id="matplotlib.axis_1">
    <g id="xtick_1">
     <g id="line2d_1">
      <path d="M 106.755025 303.64 
L 106.755025 26.16 
" clip-path="url(#pb883fc76cc)" style="fill: none; stroke: #b0b0b0; stroke-opacity: 0.3; stroke-width: 0.8; stroke-linecap: square"/>
     </g>
     <g id="line2d_2">
      <defs>
       <path id="mccf73c9a7a" d="M 0 0 
L 0 3.5 
" style="stroke: #000000; stroke-width: 0.8"/>
      </defs>
      <g>
       <use xlink:href="#mccf73c9a7a" x="106.755025" y="303.64" style="stroke: #000000; stroke-width: 0.8"/>
      </g>
     </g>
     <g id="text_1">
      <!-- 2 -->
      <g transform="translate(103.573775 318.238437) scale(0.1 -0.1)">
       <defs>
        <path id="DejaVuSans-32" d="M 1228 531 
L 3431 531 
L 3431 0 
L 469 0 
L 469 531 
Q 828 903 1448 1529 
Q 2069 2156 2228 2338 
Q 2531 2678 2651 2914 
Q 2772 3150 2772 3378 
Q 2772 3750 2511 3984 
Q 2250 4219 1831 4219 
Q 1534 4219 1204 4116 
Q 875 4013 500 3803 
L 500 4441 
Q 881 4594 1212 4672 
Q 1544 4750 1819 4750 
Q 2544 4750 2975 4387 
Q 3406 4025 3406 3419 
Q 3406 3131 3298 2873 
Q 3191 2616 2906 2266 
Q 2828 2175 2409 1742 
Q 1991 1309 1228 531 
z
" transform="scale(0.015625)"/>
       </defs>
       <use xlink:href="#DejaVuSans-32"/>
      </g>
     </g>
    </g>
    <g id="xtick_2">
     <g id="line2d_3">
      <path d="M 187.996439 303.64 
L 187.996439 26.16 
" clip-path="url(#pb883fc76cc)" style="fill: none; stroke: #b0b0b0; stroke-opacity: 0.3; stroke-width: 0.8; stroke-linecap: square"/>
     </g>
     <g id="line2d_4">
      <g>
       <use xlink:href="#mccf73c9a7a" x="187.996439" y="303.64" style="stroke: #000000; stroke-width: 0.8"/>
      </g>
     </g>
     <g id="text_2">
      <!-- 4 -->
      <g transform="translate(184.815189 318.238437) scale(0.1 -0.1)">
       <defs>
        <path id="DejaVuSans-34" d="M 2419 4116 
L 825 1625 
L 2419 1625 
L 2419 4116 
z
M 2253 4666 
L 3047 4666 
L 3047 1625 
L 3713 1625 
L 3713 1100 
L 3047 1100 
L 3047 0 
L 2419 0 
L 2419 1100 
L 313 1100 
L 313 1709 
L 2253 4666 
z
" transform="scale(0.015625)"/>
       </defs>
       <use xlink:href="#DejaVuSans-34"/>
      </g>
     </g>
    </g>
    <g id="xtick_3">
     <g id="line2d_5">
      <path d="M 269.237854 303.64 
L 269.237854 26.16 
" clip-path="url(#pb883fc76cc)" style="fill: none; stroke: #b0b0b0; stroke-opacity: 0.3; stroke-width: 0.8; stroke-linecap: square"/>
     </g>
     <g id="line2d_6">
      <g>
       <use xlink:href="#mccf73c9a7a" x="269.237854" y="303.64" style="stroke: #000000; stroke-width: 0.8"/>
      </g>
     </g>
     <g id="text_3">
      <!-- 6 -->
      <g transform="translate(266.056604 318.238437) scale(0.1 -0.1)">
       <defs>
        <path id="DejaVuSans-36" d="M 2113 2584 
Q 1688 2584 1439 2293 
Q 1191 2003 1191 1497 
Q 1191 994 1439 701 
Q 1688 409 2113 409 
Q 2538 409 2786 701 
Q 3034 994 3034 1497 
Q 3034 2003 2786 2293 
Q 2538 2584 2113 2584 
z
M 3366 4563 
L 3366 3988 
Q 3128 4100 2886 4159 
Q 2644 4219 2406 4219 
Q 1781 4219 1451 3797 
Q 1122 3375 1075 2522 
Q 1259 2794 1537 2939 
Q 1816 3084 2150 3084 
Q 2853 3084 3261 2657 
Q 3669 2231 3669 1497 
Q 3669 778 3244 343 
Q 2819 -91 2113 -91 
Q 1303 -91 875 529 
Q 447 1150 447 2328 
Q 447 3434 972 4092 
Q 1497 4750 2381 4750 
Q 2619 4750 2861 4703 
Q 3103 4656 3366 4563 
z
" transform="scale(0.015625)"/>
       </defs>
       <use xlink:href="#DejaVuSans-36"/>
      </g>
     </g>
    </g>
    <g id="xtick_4">
     <g id="line2d_7">
      <path d="M 350.479268 303.64 
L 350.479268 26.16 
" clip-path="url(#pb883fc76cc)" style="fill: none; stroke: #b0b0b0; stroke-opacity: 0.3; stroke-width: 0.8; stroke-linecap: square"/>
     </g>
     <g id="line2d_8">
      <g>
       <use xlink:href="#mccf73c9a7a" x="350.479268" y="303.64" style="stroke: #000000; stroke-width: 0.8"/>
      </g>
     </g>
     <g id="text_4">
      <!-- 8 -->
      <g transform="translate(347.298018 318.238437) scale(0.1 -0.1)">
       <defs>
        <path id="DejaVuSans-38" d="M 2034 2216 
Q 1584 2216 1326 1975 
Q 1069 1734 1069 1313 
Q 1069 891 1326 650 
Q 1584 409 2034 409 
Q 2484 409 2743 651 
Q 3003 894 3003 1313 
Q 3003 1734 2745 1975 
Q 2488 2216 2034 2216 
z
M 1403 2484 
Q 997 2584 770 2862 
Q 544 3141 544 3541 
Q 544 4100 942 4425 
Q 1341 4750 2034 4750 
Q 2731 4750 3128 4425 
Q 3525 4100 3525 3541 
Q 3525 3141 3298 2862 
Q 3072 2584 2669 2484 
Q 3125 2378 3379 2068 
Q 3634 1759 3634 1313 
Q 3634 634 3220 271 
Q 2806 -91 2034 -91 
Q 1263 -91 848 271 
Q 434 634 434 1313 
Q 434 1759 690 2068 
Q 947 2378 1403 2484 
z
M 1172 3481 
Q 1172 3119 1398 2916 
Q 1625 2713 2034 2713 
Q 2441 2713 2670 2916 
Q 2900 3119 2900 3481 
Q 2900 3844 2670 4047 
Q 2441 4250 2034 4250 
Q 1625 4250 1398 4047 
Q 1172 3844 1172 3481 
z
" transform="scale(0.015625)"/>
       </defs>
       <use xlink:href="#DejaVuSans-38"/>
      </g>
     </g>
    </g>
    <g id="xtick_5">
     <g id="line2d_9">
      <path d="M 431.720682 303.64 
L 431.720682 26.16 
" clip-path="url(#pb883fc76cc)" style="fill: none; stroke: #b0b0b0; stroke-opacity: 0.3; stroke-width: 0.8; stroke-linecap: square"/>
     </g>
     <g id="line2d_10">
      <g>
       <use xlink:href="#mccf73c9a7a" x="431.720682" y="303.64" style="stroke: #000000; stroke-width: 0.8"/>
      </g>
     </g>
     <g id="text_5">
      <!-- 10 -->
      <g transform="translate(425.358182 318.238437) scale(0.1 -0.1)">
       <defs>
        <path id="DejaVuSans-31" d="M 794 531 
L 1825 531 
L 1825 4091 
L 703 3866 
L 703 4441 
L 1819 4666 
L 2450 4666 
L 2450 531 
L 3481 531 
L 3481 0 
L 794 0 
L 794 531 
z
" transform="scale(0.015625)"/>
        <path id="DejaVuSans-30" d="M 2034 4250 
Q 1547 4250 1301 3770 
Q 1056 3291 1056 2328 
Q 1056 1369 1301 889 
Q 1547 409 2034 409 
Q 2525 409 2770 889 
Q 3016 1369 3016 2328 
Q 3016 3291 2770 3770 
Q 2525 4250 2034 4250 
z
M 2034 4750 
Q 2819 4750 3233 4129 
Q 3647 3509 3647 2328 
Q 3647 1150 3233 529 
Q 2819 -91 2034 -91 
Q 1250 -91 836 529 
Q 422 1150 422 2328 
Q 422 3509 836 4129 
Q 1250 4750 2034 4750 
z
" transform="scale(0.015625)"/>
       </defs>
       <use xlink:href="#DejaVuSans-31"/>
       <use xlink:href="#DejaVuSans-30" transform="translate(63.623047 0)"/>
      </g>
     </g>
    </g>
    <g id="text_6">
     <!-- k -->
     <g transform="translate(246.032188 331.916562) scale(0.1 -0.1)">
      <defs>
       <path id="DejaVuSans-6b" d="M 581 4863 
L 1159 4863 
L 1159 1991 
L 2875 3500 
L 3609 3500 
L 1753 1863 
L 3688 0 
L 2938 0 
L 1159 1709 
L 1159 0 
L 581 0 
L 581 4863 
z
" transform="scale(0.015625)"/>
      </defs>
      <use xlink:href="#DejaVuSans-6b"/>
     </g>
    </g>
   </g>
   <g id="matplotlib.axis_2">
    <g id="ytick_1">
     <g id="line2d_11">
      <path d="M 47.855 274.210303 
L 450 274.210303 
" clip-path="url(#pb883fc76cc)" style="fill: none; stroke: #b0b0b0; stroke-opacity: 0.3; stroke-width: 0.8; stroke-linecap: square"/>
     </g>
     <g id="line2d_12">
      <defs>
       <path id="m21373639fa" d="M 0 0 
L -3.5 0 
" style="stroke: #000000; stroke-width: 0.8"/>
      </defs>
      <g>
       <use xlink:href="#m21373639fa" x="47.855" y="274.210303" style="stroke: #000000; stroke-width: 0.8"/>
      </g>
     </g>
     <g id="text_7">
      <!-- 0.0 -->
      <g transform="translate(24.951875 278.009522) scale(0.1 -0.1)">
       <defs>
        <path id="DejaVuSans-2e" d="M 684 794 
L 1344 794 
L 1344 0 
L 684 0 
L 684 794 
z
" transform="scale(0.015625)"/>
       </defs>
       <use xlink:href="#DejaVuSans-30"/>
       <use xlink:href="#DejaVuSans-2e" transform="translate(63.623047 0)"/>
       <use xlink:href="#DejaVuSans-30" transform="translate(95.410156 0)"/>
      </g>
     </g>
    </g>
    <g id="ytick_2">
     <g id="line2d_13">
      <path d="M 47.855 227.122788 
L 450 227.122788 
" clip-path="url(#pb883fc76cc)" style="fill: none; stroke: #b0b0b0; stroke-opacity: 0.3; stroke-width: 0.8; stroke-linecap: square"/>
     </g>
     <g id="line2d_14">
      <g>
       <use xlink:href="#m21373639fa" x="47.855" y="227.122788" style="stroke: #000000; stroke-width: 0.8"/>
      </g>
     </g>
     <g id="text_8">
      <!-- 0.2 -->
      <g transform="translate(24.951875 230.922007) scale(0.1 -0.1)">
       <use xlink:href="#DejaVuSans-30"/>
       <use xlink:href="#DejaVuSans-2e" transform="translate(63.623047 0)"/>
       <use xlink:href="#DejaVuSans-32" transform="translate(95.410156 0)"/>
      </g>
     </g>
    </g>
    <g id="ytick_3">
     <g id="line2d_15">
      <path d="M 47.855 180.035273 
L 450 180.035273 
" clip-path="url(#pb883fc76cc)" style="fill: none; stroke: #b0b0b0; stroke-opacity: 0.3; stroke-width: 0.8; stroke-linecap: square"/>
     </g>
     <g id="line2d_16">
      <g>
       <use xlink:href="#m21373639fa" x="47.855" y="180.035273" style="stroke: #000000; stroke-width: 0.8"/>
      </g>
     </g>
     <g id="text_9">
      <!-- 0.4 -->
      <g transform="translate(24.951875 183.834491) scale(0.1 -0.1)">
       <use xlink:href="#DejaVuSans-30"/>
       <use xlink:href="#DejaVuSans-2e" transform="translate(63.623047 0)"/>
       <use xlink:href="#DejaVuSans-34" transform="translate(95.410156 0)"/>
      </g>
     </g>
    </g>
    <g id="ytick_4">
     <g id="line2d_17">
      <path d="M 47.855 132.947758 
L 450 132.947758 
" clip-path="url(#pb883fc76cc)" style="fill: none; stroke: #b0b0b0; stroke-opacity: 0.3; stroke-width: 0.8; stroke-linecap: square"/>
     </g>
     <g id="line2d_18">
      <g>
       <use xlink:href="#m21373639fa" x="47.855" y="132.947758" style="stroke: #000000; stroke-width: 0.8"/>
      </g>
     </g>
     <g id="text_10">
      <!-- 0.6 -->
      <g transform="translate(24.951875 136.746976) scale(0.1 -0.1)">
       <use xlink:href="#DejaVuSans-30"/>
       <use xlink:href="#DejaVuSans-2e" transform="translate(63.623047 0)"/>
       <use xlink:href="#DejaVuSans-36" transform="translate(95.410156 0)"/>
      </g>
     </g>
    </g>
    <g id="ytick_5">
     <g id="line2d_19">
      <path d="M 47.855 85.860242 
L 450 85.860242 
" clip-path="url(#pb883fc76cc)" style="fill: none; stroke: #b0b0b0; stroke-opacity: 0.3; stroke-width: 0.8; stroke-linecap: square"/>
     </g>
     <g id="line2d_20">
      <g>
       <use xlink:href="#m21373639fa" x="47.855" y="85.860242" style="stroke: #000000; stroke-width: 0.8"/>
      </g>
     </g>
     <g id="text_11">
      <!-- 0.8 -->
      <g transform="translate(24.951875 89.659461) scale(0.1 -0.1)">
       <use xlink:href="#DejaVuSans-30"/>
       <use xlink:href="#DejaVuSans-2e" transform="translate(63.623047 0)"/>
       <use xlink:href="#DejaVuSans-38" transform="translate(95.410156 0)"/>
      </g>
     </g>
    </g>
    <g id="ytick_6">
     <g id="line2d_21">
      <path d="M 47.855 38.772727 
L 450 38.772727 
" clip-path="url(#pb883fc76cc)" style="fill: none; stroke: #b0b0b0; stroke-opacity: 0.3; stroke-width: 0.8; stroke-linecap: square"/>
     </g>
     <g id="line2d_22">
      <g>
       <use xlink:href="#m21373639fa" x="47.855" y="38.772727" style="stroke: #000000; stroke-width: 0.8"/>
      </g>
     </g>
     <g id="text_12">
      <!-- 1.0 -->
      <g transform="translate(24.951875 42.571946) scale(0.1 -0.1)">
       <use xlink:href="#DejaVuSans-31"/>
       <use xlink:href="#DejaVuSans-2e" transform="translate(63.623047 0)"/>
       <use xlink:href="#DejaVuSans-30" transform="translate(95.410156 0)"/>
      </g>
     </g>
    </g>
    <g id="text_13">
     <!-- NDCG@k -->
     <g transform="translate(18.872188 187.751562) rotate(-90) scale(0.1 -0.1)">
      <defs>
       <path id="DejaVuSans-4e" d="M 628 4666 
L 1478 4666 
L 3547 763 
L 3547 4666 
L 4159 4666 
L 4159 0 
L 3309 0 
L 1241 3903 
L 1241 0 
L 628 0 
L 628 4666 
z
" transform="scale(0.015625)"/>
       <path id="DejaVuSans-44" d="M 1259 4147 
L 1259 519 
L 2022 519 
Q 2988 519 3436 956 
Q 3884 1394 3884 2338 
Q 3884 3275 3436 3711 
Q 2988 4147 2022 4147 
L 1259 4147 
z
M 628 4666 
L 1925 4666 
Q 3281 4666 3915 4102 
Q 4550 3538 4550 2338 
Q 4550 1131 3912 565 
Q 3275 0 1925 0 
L 628 0 
L 628 4666 
z
" transform="scale(0.015625)"/>
       <path id="DejaVuSans-43" d="M 4122 4306 
L 4122 3641 
Q 3803 3938 3442 4084 
Q 3081 4231 2675 4231 
Q 1875 4231 1450 3742 
Q 1025 3253 1025 2328 
Q 1025 1406 1450 917 
Q 1875 428 2675 428 
Q 3081 428 3442 575 
Q 3803 722 4122 1019 
L 4122 359 
Q 3791 134 3420 21 
Q 3050 -91 2638 -91 
Q 1578 -91 968 557 
Q 359 1206 359 2328 
Q 359 3453 968 4101 
Q 1578 4750 2638 4750 
Q 3056 4750 3426 4639 
Q 3797 4528 4122 4306 
z
" transform="scale(0.015625)"/>
       <path id="DejaVuSans-47" d="M 3809 666 
L 3809 1919 
L 2778 1919 
L 2778 2438 
L 4434 2438 
L 4434 434 
Q 4069 175 3628 42 
Q 3188 -91 2688 -91 
Q 1594 -91 976 548 
Q 359 1188 359 2328 
Q 359 3472 976 4111 
Q 1594 4750 2688 4750 
Q 3144 4750 3555 4637 
Q 3966 4525 4313 4306 
L 4313 3634 
Q 3963 3931 3569 4081 
Q 3175 4231 2741 4231 
Q 1884 4231 1454 3753 
Q 1025 3275 1025 2328 
Q 1025 1384 1454 906 
Q 1884 428 2741 428 
Q 3075 428 3337 486 
Q 3600 544 3809 666 
z
" transform="scale(0.015625)"/>
       <path id="DejaVuSans-40" d="M 2381 1678 
Q 2381 1231 2603 976 
Q 2825 722 3213 722 
Q 3597 722 3817 978 
Q 4038 1234 4038 1678 
Q 4038 2116 3813 2373 
Q 3588 2631 3206 2631 
Q 2828 2631 2604 2375 
Q 2381 2119 2381 1678 
z
M 4084 744 
Q 3897 503 3655 389 
Q 3413 275 3091 275 
Q 2553 275 2217 664 
Q 1881 1053 1881 1678 
Q 1881 2303 2218 2693 
Q 2556 3084 3091 3084 
Q 3413 3084 3656 2967 
Q 3900 2850 4084 2613 
L 4084 3022 
L 4531 3022 
L 4531 722 
Q 4988 791 5245 1139 
Q 5503 1488 5503 2041 
Q 5503 2375 5404 2669 
Q 5306 2963 5106 3213 
Q 4781 3622 4314 3839 
Q 3847 4056 3297 4056 
Q 2913 4056 2559 3954 
Q 2206 3853 1906 3653 
Q 1416 3334 1139 2817 
Q 863 2300 863 1697 
Q 863 1200 1042 765 
Q 1222 331 1563 0 
Q 1891 -325 2322 -495 
Q 2753 -666 3244 -666 
Q 3647 -666 4036 -530 
Q 4425 -394 4750 -141 
L 5031 -488 
Q 4641 -791 4180 -952 
Q 3719 -1113 3244 -1113 
Q 2666 -1113 2153 -908 
Q 1641 -703 1241 -313 
Q 841 78 631 592 
Q 422 1106 422 1697 
Q 422 2266 634 2781 
Q 847 3297 1241 3688 
Q 1644 4084 2172 4295 
Q 2700 4506 3291 4506 
Q 3953 4506 4520 4234 
Q 5088 3963 5472 3463 
Q 5706 3156 5829 2797 
Q 5953 2438 5953 2053 
Q 5953 1231 5456 756 
Q 4959 281 4084 263 
L 4084 744 
z
" transform="scale(0.015625)"/>
      </defs>
      <use xlink:href="#DejaVuSans-4e"/>
      <use xlink:href="#DejaVuSans-44" transform="translate(74.804688 0)"/>
      <use xlink:href="#DejaVuSans-43" transform="translate(151.806641 0)"/>
      <use xlink:href="#DejaVuSans-47" transform="translate(221.630859 0)"/>
      <use xlink:href="#DejaVuSans-40" transform="translate(299.121094 0)"/>
      <use xlink:href="#DejaVuSans-6b" transform="translate(399.121094 0)"/>
     </g>
    </g>
   </g>
   <g id="LineCollection_1">
    <path d="M 66.134318 151.166141 
L 66.134318 61.195354 
" clip-path="url(#pb883fc76cc)" style="fill: none; stroke: #1f77b4; stroke-width: 1.5"/>
    <path d="M 147.375732 152.697481 
L 147.375732 70.793111 
" clip-path="url(#pb883fc76cc)" style="fill: none; stroke: #1f77b4; stroke-width: 1.5"/>
    <path d="M 228.617146 139.909812 
L 228.617146 66.669601 
" clip-path="url(#pb883fc76cc)" style="fill: none; stroke: #1f77b4; stroke-width: 1.5"/>
    <path d="M 431.720682 132.375264 
L 431.720682 59.665528 
" clip-path="url(#pb883fc76cc)" style="fill: none; stroke: #1f77b4; stroke-width: 1.5"/>
   </g>
   <g id="line2d_23">
    <defs>
     <path id="m091273d1f3" d="M 3 0 
L -3 -0 
" style="stroke: #1f77b4"/>
    </defs>
    <g clip-path="url(#pb883fc76cc)">
     <use xlink:href="#m091273d1f3" x="66.134318" y="151.166141" style="fill: #1f77b4; stroke: #1f77b4"/>
     <use xlink:href="#m091273d1f3" x="147.375732" y="152.697481" style="fill: #1f77b4; stroke: #1f77b4"/>
     <use xlink:href="#m091273d1f3" x="228.617146" y="139.909812" style="fill: #1f77b4; stroke: #1f77b4"/>
     <use xlink:href="#m091273d1f3" x="431.720682" y="132.375264" style="fill: #1f77b4; stroke: #1f77b4"/>
    </g>
   </g>
   <g id="line2d_24">
    <g clip-path="url(#pb883fc76cc)">
     <use xlink:href="#m091273d1f3" x="66.134318" y="61.195354" style="fill: #1f77b4; stroke: #1f77b4"/>
     <use xlink:href="#m091273d1f3" x="147.375732" y="70.793111" style="fill: #1f77b4; stroke: #1f77b4"/>
     <use xlink:href="#m091273d1f3" x="228.617146" y="66.669601" style="fill: #1f77b4; stroke: #1f77b4"/>
     <use xlink:href="#m091273d1f3" x="431.720682" y="59.665528" style="fill: #1f77b4; stroke: #1f77b4"/>
    </g>
   </g>
   <g id="LineCollection_2">
    <path d="M 66.134318 150.885859 
L 66.134318 61.195354 
" clip-path="url(#pb883fc76cc)" style="fill: none; stroke: #ff7f0e; stroke-width: 1.5"/>
    <path d="M 147.375732 140.068192 
L 147.375732 65.500768 
" clip-path="url(#pb883fc76cc)" style="fill: none; stroke: #ff7f0e; stroke-width: 1.5"/>
    <path d="M 228.617146 138.063965 
L 228.617146 65.749707 
" clip-path="url(#pb883fc76cc)" style="fill: none; stroke: #ff7f0e; stroke-width: 1.5"/>
    <path d="M 431.720682 113.067464 
L 431.720682 57.937796 
" clip-path="url(#pb883fc76cc)" style="fill: none; stroke: #ff7f0e; stroke-width: 1.5"/>
   </g>
   <g id="line2d_25">
    <defs>
     <path id="ma8a951383c" d="M 3 0 
L -3 -0 
" style="stroke: #ff7f0e"/>
    </defs>
    <g clip-path="url(#pb883fc76cc)">
     <use xlink:href="#ma8a951383c" x="66.134318" y="150.885859" style="fill: #ff7f0e; stroke: #ff7f0e"/>
     <use xlink:href="#ma8a951383c" x="147.375732" y="140.068192" style="fill: #ff7f0e; stroke: #ff7f0e"/>
     <use xlink:href="#ma8a951383c" x="228.617146" y="138.063965" style="fill: #ff7f0e; stroke: #ff7f0e"/>
     <use xlink:href="#ma8a951383c" x="431.720682" y="113.067464" style="fill: #ff7f0e; stroke: #ff7f0e"/>
    </g>
   </g>
   <g id="line2d_26">
    <g clip-path="url(#pb883fc76cc)">
     <use xlink:href="#ma8a951383c" x="66.134318" y="61.195354" style="fill: #ff7f0e; stroke: #ff7f0e"/>
     <use xlink:href="#ma8a951383c" x="147.375732" y="65.500768" style="fill: #ff7f0e; stroke: #ff7f0e"/>
     <use xlink:href="#ma8a951383c" x="228.617146" y="65.749707" style="fill: #ff7f0e; stroke: #ff7f0e"/>
     <use xlink:href="#ma8a951383c" x="431.720682" y="57.937796" style="fill: #ff7f0e; stroke: #ff7f0e"/>
    </g>
   </g>
   <g id="LineCollection_3">
    <path d="M 66.134318 128.463232 
L 66.134318 49.98404 
" clip-path="url(#pb883fc76cc)" style="fill: none; stroke: #2ca02c; stroke-width: 1.5"/>
    <path d="M 147.375732 95.898456 
L 147.375732 44.378384 
" clip-path="url(#pb883fc76cc)" style="fill: none; stroke: #2ca02c; stroke-width: 1.5"/>
    <path d="M 228.617146 98.945502 
L 228.617146 50.289081 
" clip-path="url(#pb883fc76cc)" style="fill: none; stroke: #2ca02c; stroke-width: 1.5"/>
    <path d="M 431.720682 91.755612 
L 431.720682 44.529284 
" clip-path="url(#pb883fc76cc)" style="fill: none; stroke: #2ca02c; stroke-width: 1.5"/>
   </g>
   <g id="line2d_27">
    <defs>
     <path id="m89e33c04ea" d="M 3 0 
L -3 -0 
" style="stroke: #2ca02c"/>
    </defs>
    <g clip-path="url(#pb883fc76cc)">
     <use xlink:href="#m89e33c04ea" x="66.134318" y="128.463232" style="fill: #2ca02c; stroke: #2ca02c"/>
     <use xlink:href="#m89e33c04ea" x="147.375732" y="95.898456" style="fill: #2ca02c; stroke: #2ca02c"/>
     <use xlink:href="#m89e33c04ea" x="228.617146" y="98.945502" style="fill: #2ca02c; stroke: #2ca02c"/>
     <use xlink:href="#m89e33c04ea" x="431.720682" y="91.755612" style="fill: #2ca02c; stroke: #2ca02c"/>
    </g>
   </g>
   <g id="line2d_28">
    <g clip-path="url(#pb883fc76cc)">
     <use xlink:href="#m89e33c04ea" x="66.134318" y="49.98404" style="fill: #2ca02c; stroke: #2ca02c"/>
     <use xlink:href="#m89e33c04ea" x="147.375732" y="44.378384" style="fill: #2ca02c; stroke: #2ca02c"/>
     <use xlink:href="#m89e33c04ea" x="228.617146" y="50.289081" style="fill: #2ca02c; stroke: #2ca02c"/>
     <use xlink:href="#m89e33c04ea" x="431.720682" y="44.529284" style="fill: #2ca02c; stroke: #2ca02c"/>
    </g>
   </g>
   <g id="LineCollection_4">
    <path d="M 66.134318 291.027273 
L 66.134318 240.576364 
" clip-path="url(#pb883fc76cc)" style="fill: none; stroke: #d62728; stroke-width: 1.5"/>
    <path d="M 147.375732 279.189504 
L 147.375732 240.576364 
" clip-path="url(#pb883fc76cc)" style="fill: none; stroke: #d62728; stroke-width: 1.5"/>
    <path d="M 228.617146 274.210303 
L 228.617146 235.293409 
" clip-path="url(#pb883fc76cc)" style="fill: none; stroke: #d62728; stroke-width: 1.5"/>
    <path d="M 431.720682 274.210303 
L 431.720682 236.030959 
" clip-path="url(#pb883fc76cc)" style="fill: none; stroke: #d62728; stroke-width: 1.5"/>
   </g>
   <g id="line2d_29">
    <defs>
     <path id="m0f2b162d59" d="M 3 0 
L -3 -0 
" style="stroke: #d62728"/>
    </defs>
    <g clip-path="url(#pb883fc76cc)">
     <use xlink:href="#m0f2b162d59" x="66.134318" y="291.027273" style="fill: #d62728; stroke: #d62728"/>
     <use xlink:href="#m0f2b162d59" x="147.375732" y="279.189504" style="fill: #d62728; stroke: #d62728"/>
     <use xlink:href="#m0f2b162d59" x="228.617146" y="274.210303" style="fill: #d62728; stroke: #d62728"/>
     <use xlink:href="#m0f2b162d59" x="431.720682" y="274.210303" style="fill: #d62728; stroke: #d62728"/>
    </g>
   </g>
   <g id="line2d_30">
    <g clip-path="url(#pb883fc76cc)">
     <use xlink:href="#m0f2b162d59" x="66.134318" y="240.576364" style="fill: #d62728; stroke: #d62728"/>
     <use xlink:href="#m0f2b162d59" x="147.375732" y="240.576364" style="fill: #d62728; stroke: #d62728"/>
     <use xlink:href="#m0f2b162d59" x="228.617146" y="235.293409" style="fill: #d62728; stroke: #d62728"/>
     <use xlink:href="#m0f2b162d59" x="431.720682" y="236.030959" style="fill: #d62728; stroke: #d62728"/>
    </g>
   </g>
   <g id="LineCollection_5">
    <path d="M 66.134318 38.772727 
L 66.134318 38.772727 
" clip-path="url(#pb883fc76cc)" style="fill: none; stroke: #9467bd; stroke-width: 1.5"/>
    <path d="M 147.375732 38.772727 
L 147.375732 38.772727 
" clip-path="url(#pb883fc76cc)" style="fill: none; stroke: #9467bd; stroke-width: 1.5"/>
    <path d="M 228.617146 54.814514 
L 228.617146 40.243708 
" clip-path="url(#pb883fc76cc)" style="fill: none; stroke: #9467bd; stroke-width: 1.5"/>
    <path d="M 431.720682 41.75004 
L 431.720682 39.098655 
" clip-path="url(#pb883fc76cc)" style="fill: none; stroke: #9467bd; stroke-width: 1.5"/>
   </g>
   <g id="line2d_31">
    <defs>
     <path id="mb41dd277a4" d="M 3 0 
L -3 -0 
" style="stroke: #9467bd"/>
    </defs>
    <g clip-path="url(#pb883fc76cc)">
     <use xlink:href="#mb41dd277a4" x="66.134318" y="38.772727" style="fill: #9467bd; stroke: #9467bd"/>
     <use xlink:href="#mb41dd277a4" x="147.375732" y="38.772727" style="fill: #9467bd; stroke: #9467bd"/>
     <use xlink:href="#mb41dd277a4" x="228.617146" y="54.814514" style="fill: #9467bd; stroke: #9467bd"/>
     <use xlink:href="#mb41dd277a4" x="431.720682" y="41.75004" style="fill: #9467bd; stroke: #9467bd"/>
    </g>
   </g>
   <g id="line2d_32">
    <g clip-path="url(#pb883fc76cc)">
     <use xlink:href="#mb41dd277a4" x="66.134318" y="38.772727" style="fill: #9467bd; stroke: #9467bd"/>
     <use xlink:href="#mb41dd277a4" x="147.375732" y="38.772727" style="fill: #9467bd; stroke: #9467bd"/>
     <use xlink:href="#mb41dd277a4" x="228.617146" y="40.243708" style="fill: #9467bd; stroke: #9467bd"/>
     <use xlink:href="#mb41dd277a4" x="431.720682" y="39.098655" style="fill: #9467bd; stroke: #9467bd"/>
    </g>
   </g>
   <g id="LineCollection_6">
    <path d="M 66.134318 128.463232 
L 66.134318 49.98404 
" clip-path="url(#pb883fc76cc)" style="fill: none; stroke: #8c564b; stroke-width: 1.5"/>
    <path d="M 147.375732 115.188484 
L 147.375732 49.295189 
" clip-path="url(#pb883fc76cc)" style="fill: none; stroke: #8c564b; stroke-width: 1.5"/>
    <path d="M 228.617146 107.965165 
L 228.617146 50.626644 
" clip-path="url(#pb883fc76cc)" style="fill: none; stroke: #8c564b; stroke-width: 1.5"/>
    <path d="M 431.720682 96.135206 
L 431.720682 45.917069 
" clip-path="url(#pb883fc76cc)" style="fill: none; stroke: #8c564b; stroke-width: 1.5"/>
   </g>
   <g id="line2d_33">
    <defs>
     <path id="m05010fefb3" d="M 3 0 
L -3 -0 
" style="stroke: #8c564b"/>
    </defs>
    <g clip-path="url(#pb883fc76cc)">
     <use xlink:href="#m05010fefb3" x="66.134318" y="128.463232" style="fill: #8c564b; stroke: #8c564b"/>
     <use xlink:href="#m05010fefb3" x="147.375732" y="115.188484" style="fill: #8c564b; stroke: #8c564b"/>
     <use xlink:href="#m05010fefb3" x="228.617146" y="107.965165" style="fill: #8c564b; stroke: #8c564b"/>
     <use xlink:href="#m05010fefb3" x="431.720682" y="96.135206" style="fill: #8c564b; stroke: #8c564b"/>
    </g>
   </g>
   <g id="line2d_34">
    <g clip-path="url(#pb883fc76cc)">
     <use xlink:href="#m05010fefb3" x="66.134318" y="49.98404" style="fill: #8c564b; stroke: #8c564b"/>
     <use xlink:href="#m05010fefb3" x="147.375732" y="49.295189" style="fill: #8c564b; stroke: #8c564b"/>
     <use xlink:href="#m05010fefb3" x="228.617146" y="50.626644" style="fill: #8c564b; stroke: #8c564b"/>
     <use xlink:href="#m05010fefb3" x="431.720682" y="45.917069" style="fill: #8c564b; stroke: #8c564b"/>
    </g>
   </g>
   <g id="line2d_35">
    <path d="M 66.134318 106.040606 
L 147.375732 108.302728 
L 228.617146 100.516374 
L 431.720682 94.753529 
" clip-path="url(#pb883fc76cc)" style="fill: none; stroke: #1f77b4; stroke-width: 1.5; stroke-linecap: square"/>
    <defs>
     <path id="m19f2665a12" d="M 0 3 
C 0.795609 3 1.55874 2.683901 2.12132 2.12132 
C 2.683901 1.55874 3 0.795609 3 0 
C 3 -0.795609 2.683901 -1.55874 2.12132 -2.12132 
C 1.55874 -2.683901 0.795609 -3 0 -3 
C -0.795609 -3 -1.55874 -2.683901 -2.12132 -2.12132 
C -2.683901 -1.55874 -3 -0.795609 -3 0 
C -3 0.795609 -2.683901 1.55874 -2.12132 2.12132 
C -1.55874 2.683901 -0.795609 3 0 3 
z
" style="stroke: #1f77b4"/>
    </defs>
    <g clip-path="url(#pb883fc76cc)">
     <use xlink:href="#m19f2665a12" x="66.134318" y="106.040606" style="fill: #1f77b4; stroke: #1f77b4"/>
     <use xlink:href="#m19f2665a12" x="147.375732" y="108.302728" style="fill: #1f77b4; stroke: #1f77b4"/>
     <use xlink:href="#m19f2665a12" x="228.617146" y="100.516374" style="fill: #1f77b4; stroke: #1f77b4"/>
     <use xlink:href="#m19f2665a12" x="431.720682" y="94.753529" style="fill: #1f77b4; stroke: #1f77b4"/>
    </g>
   </g>
   <g id="line2d_36">
    <path d="M 66.134318 106.040606 
L 147.375732 101.017993 
L 228.617146 100.453653 
L 431.720682 83.318155 
" clip-path="url(#pb883fc76cc)" style="fill: none; stroke: #ff7f0e; stroke-width: 1.5; stroke-linecap: square"/>
    <defs>
     <path id="mac6f855322" d="M 0 3 
C 0.795609 3 1.55874 2.683901 2.12132 2.12132 
C 2.683901 1.55874 3 0.795609 3 0 
C 3 -0.795609 2.683901 -1.55874 2.12132 -2.12132 
C 1.55874 -2.683901 0.795609 -3 0 -3 
C -0.795609 -3 -1.55874 -2.683901 -2.12132 -2.12132 
C -2.683901 -1.55874 -3 -0.795609 -3 0 
C -3 0.795609 -2.683901 1.55874 -2.12132 2.12132 
C -1.55874 2.683901 -0.795609 3 0 3 
z
" style="stroke: #ff7f0e"/>
    </defs>
    <g clip-path="url(#pb883fc76cc)">
     <use xlink:href="#mac6f855322" x="66.134318" y="106.040606" style="fill: #ff7f0e; stroke: #ff7f0e"/>
     <use xlink:href="#mac6f855322" x="147.375732" y="101.017993" style="fill: #ff7f0e; stroke: #ff7f0e"/>
     <use xlink:href="#mac6f855322" x="228.617146" y="100.453653" style="fill: #ff7f0e; stroke: #ff7f0e"/>
     <use xlink:href="#mac6f855322" x="431.720682" y="83.318155" style="fill: #ff7f0e; stroke: #ff7f0e"/>
    </g>
   </g>
   <g id="line2d_37">
    <path d="M 66.134318 83.61798 
L 147.375732 66.601644 
L 228.617146 71.521076 
L 431.720682 65.185422 
" clip-path="url(#pb883fc76cc)" style="fill: none; stroke: #2ca02c; stroke-width: 1.5; stroke-linecap: square"/>
    <defs>
     <path id="meadf26e493" d="M 0 3 
C 0.795609 3 1.55874 2.683901 2.12132 2.12132 
C 2.683901 1.55874 3 0.795609 3 0 
C 3 -0.795609 2.683901 -1.55874 2.12132 -2.12132 
C 1.55874 -2.683901 0.795609 -3 0 -3 
C -0.795609 -3 -1.55874 -2.683901 -2.12132 -2.12132 
C -2.683901 -1.55874 -3 -0.795609 -3 0 
C -3 0.795609 -2.683901 1.55874 -2.12132 2.12132 
C -1.55874 2.683901 -0.795609 3 0 3 
z
" style="stroke: #2ca02c"/>
    </defs>
    <g clip-path="url(#pb883fc76cc)">
     <use xlink:href="#meadf26e493" x="66.134318" y="83.61798" style="fill: #2ca02c; stroke: #2ca02c"/>
     <use xlink:href="#meadf26e493" x="147.375732" y="66.601644" style="fill: #2ca02c; stroke: #2ca02c"/>
     <use xlink:href="#meadf26e493" x="228.617146" y="71.521076" style="fill: #2ca02c; stroke: #2ca02c"/>
     <use xlink:href="#meadf26e493" x="431.720682" y="65.185422" style="fill: #2ca02c; stroke: #2ca02c"/>
    </g>
   </g>
   <g id="line2d_38">
    <path d="M 66.134318 268.604646 
L 147.375732 264.658723 
L 228.617146 260.357513 
L 431.720682 259.847646 
" clip-path="url(#pb883fc76cc)" style="fill: none; stroke: #d62728; stroke-width: 1.5; stroke-linecap: square"/>
    <defs>
     <path id="m3e2363e306" d="M 0 3 
C 0.795609 3 1.55874 2.683901 2.12132 2.12132 
C 2.683901 1.55874 3 0.795609 3 0 
C 3 -0.795609 2.683901 -1.55874 2.12132 -2.12132 
C 1.55874 -2.683901 0.795609 -3 0 -3 
C -0.795609 -3 -1.55874 -2.683901 -2.12132 -2.12132 
C -2.683901 -1.55874 -3 -0.795609 -3 0 
C -3 0.795609 -2.683901 1.55874 -2.12132 2.12132 
C -1.55874 2.683901 -0.795609 3 0 3 
z
" style="stroke: #d62728"/>
    </defs>
    <g clip-path="url(#pb883fc76cc)">
     <use xlink:href="#m3e2363e306" x="66.134318" y="268.604646" style="fill: #d62728; stroke: #d62728"/>
     <use xlink:href="#m3e2363e306" x="147.375732" y="264.658723" style="fill: #d62728; stroke: #d62728"/>
     <use xlink:href="#m3e2363e306" x="228.617146" y="260.357513" style="fill: #d62728; stroke: #d62728"/>
     <use xlink:href="#m3e2363e306" x="431.720682" y="259.847646" style="fill: #d62728; stroke: #d62728"/>
    </g>
   </g>
   <g id="line2d_39">
    <path d="M 66.134318 38.772727 
L 147.375732 38.772727 
L 228.617146 46.874856 
L 431.720682 40.258357 
" clip-path="url(#pb883fc76cc)" style="fill: none; stroke: #9467bd; stroke-width: 1.5; stroke-linecap: square"/>
    <defs>
     <path id="me10c20efd9" d="M 0 3 
C 0.795609 3 1.55874 2.683901 2.12132 2.12132 
C 2.683901 1.55874 3 0.795609 3 0 
C 3 -0.795609 2.683901 -1.55874 2.12132 -2.12132 
C 1.55874 -2.683901 0.795609 -3 0 -3 
C -0.795609 -3 -1.55874 -2.683901 -2.12132 -2.12132 
C -2.683901 -1.55874 -3 -0.795609 -3 0 
C -3 0.795609 -2.683901 1.55874 -2.12132 2.12132 
C -1.55874 2.683901 -0.795609 3 0 3 
z
" style="stroke: #9467bd"/>
    </defs>
    <g clip-path="url(#pb883fc76cc)">
     <use xlink:href="#me10c20efd9" x="66.134318" y="38.772727" style="fill: #9467bd; stroke: #9467bd"/>
     <use xlink:href="#me10c20efd9" x="147.375732" y="38.772727" style="fill: #9467bd; stroke: #9467bd"/>
     <use xlink:href="#me10c20efd9" x="228.617146" y="46.874856" style="fill: #9467bd; stroke: #9467bd"/>
     <use xlink:href="#me10c20efd9" x="431.720682" y="40.258357" style="fill: #9467bd; stroke: #9467bd"/>
    </g>
   </g>
   <g id="line2d_40">
    <path d="M 66.134318 83.61798 
L 147.375732 80.298513 
L 228.617146 76.236907 
L 431.720682 67.121355 
" clip-path="url(#pb883fc76cc)" style="fill: none; stroke: #8c564b; stroke-width: 1.5; stroke-linecap: square"/>
    <defs>
     <path id="m9a6cf9ec29" d="M 0 3 
C 0.795609 3 1.55874 2.683901 2.12132 2.12132 
C 2.683901 1.55874 3 0.795609 3 0 
C 3 -0.795609 2.683901 -1.55874 2.12132 -2.12132 
C 1.55874 -2.683901 0.795609 -3 0 -3 
C -0.795609 -3 -1.55874 -2.683901 -2.12132 -2.12132 
C -2.683901 -1.55874 -3 -0.795609 -3 0 
C -3 0.795609 -2.683901 1.55874 -2.12132 2.12132 
C -1.55874 2.683901 -0.795609 3 0 3 
z
" style="stroke: #8c564b"/>
    </defs>
    <g clip-path="url(#pb883fc76cc)">
     <use xlink:href="#m9a6cf9ec29" x="66.134318" y="83.61798" style="fill: #8c564b; stroke: #8c564b"/>
     <use xlink:href="#m9a6cf9ec29" x="147.375732" y="80.298513" style="fill: #8c564b; stroke: #8c564b"/>
     <use xlink:href="#m9a6cf9ec29" x="228.617146" y="76.236907" style="fill: #8c564b; stroke: #8c564b"/>
     <use xlink:href="#m9a6cf9ec29" x="431.720682" y="67.121355" style="fill: #8c564b; stroke: #8c564b"/>
    </g>
   </g>
   <g id="patch_3">
    <path d="M 47.855 303.64 
L 47.855 26.16 
" style="fill: none; stroke: #000000; stroke-width: 0.8; stroke-linejoin: miter; stroke-linecap: square"/>
   </g>
   <g id="patch_4">
    <path d="M 450 303.64 
L 450 26.16 
" style="fill: none; stroke: #000000; stroke-width: 0.8; stroke-linejoin: miter; stroke-linecap: square"/>
   </g>
   <g id="patch_5">
    <path d="M 47.855 303.64 
L 450 303.64 
" style="fill: none; stroke: #000000; stroke-width: 0.8; stroke-linejoin: miter; stroke-linecap: square"/>
   </g>
   <g id="patch_6">
    <path d="M 47.855 26.16 
L 450 26.16 
" style="fill: none; stroke: #000000; stroke-width: 0.8; stroke-linejoin: miter; stroke-linecap: square"/>
   </g>
   <g id="text_14">
    <!-- NDCG@k (mean ± 95% CI) -->
    <g transform="translate(167.857188 20.16) scale(0.12 -0.12)">
     <defs>
      <path id="DejaVuSans-20" transform="scale(0.015625)"/>
      <path id="DejaVuSans-28" d="M 1984 4856 
Q 1566 4138 1362 3434 
Q 1159 2731 1159 2009 
Q 1159 1288 1364 580 
Q 1569 -128 1984 -844 
L 1484 -844 
Q 1016 -109 783 600 
Q 550 1309 550 2009 
Q 550 2706 781 3412 
Q 1013 4119 1484 4856 
L 1984 4856 
z
" transform="scale(0.015625)"/>
      <path id="DejaVuSans-6d" d="M 3328 2828 
Q 3544 3216 3844 3400 
Q 4144 3584 4550 3584 
Q 5097 3584 5394 3201 
Q 5691 2819 5691 2113 
L 5691 0 
L 5113 0 
L 5113 2094 
Q 5113 2597 4934 2840 
Q 4756 3084 4391 3084 
Q 3944 3084 3684 2787 
Q 3425 2491 3425 1978 
L 3425 0 
L 2847 0 
L 2847 2094 
Q 2847 2600 2669 2842 
Q 2491 3084 2119 3084 
Q 1678 3084 1418 2786 
Q 1159 2488 1159 1978 
L 1159 0 
L 581 0 
L 581 3500 
L 1159 3500 
L 1159 2956 
Q 1356 3278 1631 3431 
Q 1906 3584 2284 3584 
Q 2666 3584 2933 3390 
Q 3200 3197 3328 2828 
z
" transform="scale(0.015625)"/>
      <path id="DejaVuSans-65" d="M 3597 1894 
L 3597 1613 
L 953 1613 
Q 991 1019 1311 708 
Q 1631 397 2203 397 
Q 2534 397 2845 478 
Q 3156 559 3463 722 
L 3463 178 
Q 3153 47 2828 -22 
Q 2503 -91 2169 -91 
Q 1331 -91 842 396 
Q 353 884 353 1716 
Q 353 2575 817 3079 
Q 1281 3584 2069 3584 
Q 2775 3584 3186 3129 
Q 3597 2675 3597 1894 
z
M 3022 2063 
Q 3016 2534 2758 2815 
Q 2500 3097 2075 3097 
Q 1594 3097 1305 2825 
Q 1016 2553 972 2059 
L 3022 2063 
z
" transform="scale(0.015625)"/>
      <path id="DejaVuSans-61" d="M 2194 1759 
Q 1497 1759 1228 1600 
Q 959 1441 959 1056 
Q 959 750 1161 570 
Q 1363 391 1709 391 
Q 2188 391 2477 730 
Q 2766 1069 2766 1631 
L 2766 1759 
L 2194 1759 
z
M 3341 1997 
L 3341 0 
L 2766 0 
L 2766 531 
Q 2569 213 2275 61 
Q 1981 -91 1556 -91 
Q 1019 -91 701 211 
Q 384 513 384 1019 
Q 384 1609 779 1909 
Q 1175 2209 1959 2209 
L 2766 2209 
L 2766 2266 
Q 2766 2663 2505 2880 
Q 2244 3097 1772 3097 
Q 1472 3097 1187 3025 
Q 903 2953 641 2809 
L 641 3341 
Q 956 3463 1253 3523 
Q 1550 3584 1831 3584 
Q 2591 3584 2966 3190 
Q 3341 2797 3341 1997 
z
" transform="scale(0.015625)"/>
      <path id="DejaVuSans-6e" d="M 3513 2113 
L 3513 0 
L 2938 0 
L 2938 2094 
Q 2938 2591 2744 2837 
Q 2550 3084 2163 3084 
Q 1697 3084 1428 2787 
Q 1159 2491 1159 1978 
L 1159 0 
L 581 0 
L 581 3500 
L 1159 3500 
L 1159 2956 
Q 1366 3272 1645 3428 
Q 1925 3584 2291 3584 
Q 2894 3584 3203 3211 
Q 3513 2838 3513 2113 
z
" transform="scale(0.015625)"/>
      <path id="DejaVuSans-b1" d="M 2944 4013 
L 2944 2803 
L 4684 2803 
L 4684 2272 
L 2944 2272 
L 2944 1063 
L 2419 1063 
L 2419 2272 
L 678 2272 
L 678 2803 
L 2419 2803 
L 2419 4013 
L 2944 4013 
z
M 678 531 
L 4684 531 
L 4684 0 
L 678 0 
L 678 531 
z
" transform="scale(0.015625)"/>
      <path id="DejaVuSans-39" d="M 703 97 
L 703 672 
Q 941 559 1184 500 
Q 1428 441 1663 441 
Q 2288 441 2617 861 
Q 2947 1281 2994 2138 
Q 2813 1869 2534 1725 
Q 2256 1581 1919 1581 
Q 1219 1581 811 2004 
Q 403 2428 403 3163 
Q 403 3881 828 4315 
Q 1253 4750 1959 4750 
Q 2769 4750 3195 4129 
Q 3622 3509 3622 2328 
Q 3622 1225 3098 567 
Q 2575 -91 1691 -91 
Q 1453 -91 1209 -44 
Q 966 3 703 97 
z
M 1959 2075 
Q 2384 2075 2632 2365 
Q 2881 2656 2881 3163 
Q 2881 3666 2632 3958 
Q 2384 4250 1959 4250 
Q 1534 4250 1286 3958 
Q 1038 3666 1038 3163 
Q 1038 2656 1286 2365 
Q 1534 2075 1959 2075 
z
" transform="scale(0.015625)"/>
      <path id="DejaVuSans-35" d="M 691 4666 
L 3169 4666 
L 3169 4134 
L 1269 4134 
L 1269 2991 
Q 1406 3038 1543 3061 
Q 1681 3084 1819 3084 
Q 2600 3084 3056 2656 
Q 3513 2228 3513 1497 
Q 3513 744 3044 326 
Q 2575 -91 1722 -91 
Q 1428 -91 1123 -41 
Q 819 9 494 109 
L 494 744 
Q 775 591 1075 516 
Q 1375 441 1709 441 
Q 2250 441 2565 725 
Q 2881 1009 2881 1497 
Q 2881 1984 2565 2268 
Q 2250 2553 1709 2553 
Q 1456 2553 1204 2497 
Q 953 2441 691 2322 
L 691 4666 
z
" transform="scale(0.015625)"/>
      <path id="DejaVuSans-25" d="M 4653 2053 
Q 4381 2053 4226 1822 
Q 4072 1591 4072 1178 
Q 4072 772 4226 539 
Q 4381 306 4653 306 
Q 4919 306 5073 539 
Q 5228 772 5228 1178 
Q 5228 1588 5073 1820 
Q 4919 2053 4653 2053 
z
M 4653 2450 
Q 5147 2450 5437 2106 
Q 5728 1763 5728 1178 
Q 5728 594 5436 251 
Q 5144 -91 4653 -91 
Q 4153 -91 3862 251 
Q 3572 594 3572 1178 
Q 3572 1766 3864 2108 
Q 4156 2450 4653 2450 
z
M 1428 4353 
Q 1159 4353 1004 4120 
Q 850 3888 850 3481 
Q 850 3069 1003 2837 
Q 1156 2606 1428 2606 
Q 1700 2606 1854 2837 
Q 2009 3069 2009 3481 
Q 2009 3884 1853 4118 
Q 1697 4353 1428 4353 
z
M 4250 4750 
L 4750 4750 
L 1831 -91 
L 1331 -91 
L 4250 4750 
z
M 1428 4750 
Q 1922 4750 2215 4408 
Q 2509 4066 2509 3481 
Q 2509 2891 2217 2550 
Q 1925 2209 1428 2209 
Q 931 2209 642 2551 
Q 353 2894 353 3481 
Q 353 4063 643 4406 
Q 934 4750 1428 4750 
z
" transform="scale(0.015625)"/>
      <path id="DejaVuSans-49" d="M 628 4666 
L 1259 4666 
L 1259 0 
L 628 0 
L 628 4666 
z
" transform="scale(0.015625)"/>
      <path id="DejaVuSans-29" d="M 513 4856 
L 1013 4856 
Q 1481 4119 1714 3412 
Q 1947 2706 1947 2009 
Q 1947 1309 1714 600 
Q 1481 -109 1013 -844 
L 513 -844 
Q 928 -128 1133 580 
Q 1338 1288 1338 2009 
Q 1338 2731 1133 3434 
Q 928 4138 513 4856 
z
" transform="scale(0.015625)"/>
     </defs>
     <use xlink:href="#DejaVuSans-4e"/>
     <use xlink:href="#DejaVuSans-44" transform="translate(74.804688 0)"/>
     <use xlink:href="#DejaVuSans-43" transform="translate(151.806641 0)"/>
     <use xlink:href="#DejaVuSans-47" transform="translate(221.630859 0)"/>
     <use xlink:href="#DejaVuSans-40" transform="translate(299.121094 0)"/>
     <use xlink:href="#DejaVuSans-6b" transform="translate(399.121094 0)"/>
     <use xlink:href="#DejaVuSans-20" transform="translate(457.03125 0)"/>
     <use xlink:href="#DejaVuSans-28" transform="translate(488.818359 0)"/>
     <use xlink:href="#DejaVuSans-6d" transform="translate(527.832031 0)"/>
     <use xlink:href="#DejaVuSans-65" transform="translate(625.244141 0)"/>
     <use xlink:href="#DejaVuSans-61" transform="translate(686.767578 0)"/>
     <use xlink:href="#DejaVuSans-6e" transform="translate(748.046875 0)"/>
     <use xlink:href="#DejaVuSans-20" transform="translate(811.425781 0)"/>
     <use xlink:href="#DejaVuSans-b1" transform="translate(843.212891 0)"/>
     <use xlink:href="#DejaVuSans-20" transform="translate(927.001953 0)"/>
     <use xlink:href="#DejaVuSans-39" transform="translate(958.789062 0)"/>
     <use xlink:href="#DejaVuSans-35" transform="translate(1022.412109 0)"/>
     <use xlink:href="#DejaVuSans-25" transform="translate(1086.035156 0)"/>
     <use xlink:href="#DejaVuSans-20" transform="translate(1181.054688 0)"/>
     <use xlink:href="#DejaVuSans-43" transform="translate(1212.841797 0)"/>
     <use xlink:href="#DejaVuSans-49" transform="translate(1282.666016 0)"/>
     <use xlink:href="#DejaVuSans-29" transform="translate(1312.158203 0)"/>
    </g>
   </g>
   <g id="legend_1">
    <g id="patch_7">
     <path d="M 348.298437 210.434375 
L 443 210.434375 
Q 445 210.434375 445 208.434375 
L 445 121.365625 
Q 445 119.365625 443 119.365625 
L 348.298437 119.365625 
Q 346.298437 119.365625 346.298437 121.365625 
L 346.298437 208.434375 
Q 346.298437 210.434375 348.298437 210.434375 
z
" style="fill: #ffffff; opacity: 0.8; stroke: #cccccc; stroke-linejoin: miter"/>
    </g>
    <g id="LineCollection_7">
     <path d="M 360.298437 132.464062 
L 360.298437 122.464062 
" style="fill: none; stroke: #1f77b4; stroke-width: 1.5"/>
    </g>
    <g id="line2d_41">
     <g>
      <use xlink:href="#m091273d1f3" x="360.298437" y="132.464062" style="fill: #1f77b4; stroke: #1f77b4"/>
     </g>
    </g>
    <g id="line2d_42">
     <g>
      <use xlink:href="#m091273d1f3" x="360.298437" y="122.464062" style="fill: #1f77b4; stroke: #1f77b4"/>
     </g>
    </g>
    <g id="line2d_43">
     <path d="M 350.298437 127.464062 
L 370.298437 127.464062 
" style="fill: none; stroke: #1f77b4; stroke-width: 1.5; stroke-linecap: square"/>
    </g>
    <g id="line2d_44">
     <g>
      <use xlink:href="#m19f2665a12" x="360.298437" y="127.464062" style="fill: #1f77b4; stroke: #1f77b4"/>
     </g>
    </g>
    <g id="text_15">
     <!-- bgem3 -->
     <g transform="translate(378.298437 130.964062) scale(0.1 -0.1)">
      <defs>
       <path id="DejaVuSans-62" d="M 3116 1747 
Q 3116 2381 2855 2742 
Q 2594 3103 2138 3103 
Q 1681 3103 1420 2742 
Q 1159 2381 1159 1747 
Q 1159 1113 1420 752 
Q 1681 391 2138 391 
Q 2594 391 2855 752 
Q 3116 1113 3116 1747 
z
M 1159 2969 
Q 1341 3281 1617 3432 
Q 1894 3584 2278 3584 
Q 2916 3584 3314 3078 
Q 3713 2572 3713 1747 
Q 3713 922 3314 415 
Q 2916 -91 2278 -91 
Q 1894 -91 1617 61 
Q 1341 213 1159 525 
L 1159 0 
L 581 0 
L 581 4863 
L 1159 4863 
L 1159 2969 
z
" transform="scale(0.015625)"/>
       <path id="DejaVuSans-67" d="M 2906 1791 
Q 2906 2416 2648 2759 
Q 2391 3103 1925 3103 
Q 1463 3103 1205 2759 
Q 947 2416 947 1791 
Q 947 1169 1205 825 
Q 1463 481 1925 481 
Q 2391 481 2648 825 
Q 2906 1169 2906 1791 
z
M 3481 434 
Q 3481 -459 3084 -895 
Q 2688 -1331 1869 -1331 
Q 1566 -1331 1297 -1286 
Q 1028 -1241 775 -1147 
L 775 -588 
Q 1028 -725 1275 -790 
Q 1522 -856 1778 -856 
Q 2344 -856 2625 -561 
Q 2906 -266 2906 331 
L 2906 616 
Q 2728 306 2450 153 
Q 2172 0 1784 0 
Q 1141 0 747 490 
Q 353 981 353 1791 
Q 353 2603 747 3093 
Q 1141 3584 1784 3584 
Q 2172 3584 2450 3431 
Q 2728 3278 2906 2969 
L 2906 3500 
L 3481 3500 
L 3481 434 
z
" transform="scale(0.015625)"/>
       <path id="DejaVuSans-33" d="M 2597 2516 
Q 3050 2419 3304 2112 
Q 3559 1806 3559 1356 
Q 3559 666 3084 287 
Q 2609 -91 1734 -91 
Q 1441 -91 1130 -33 
Q 819 25 488 141 
L 488 750 
Q 750 597 1062 519 
Q 1375 441 1716 441 
Q 2309 441 2620 675 
Q 2931 909 2931 1356 
Q 2931 1769 2642 2001 
Q 2353 2234 1838 2234 
L 1294 2234 
L 1294 2753 
L 1863 2753 
Q 2328 2753 2575 2939 
Q 2822 3125 2822 3475 
Q 2822 3834 2567 4026 
Q 2313 4219 1838 4219 
Q 1578 4219 1281 4162 
Q 984 4106 628 3988 
L 628 4550 
Q 988 4650 1302 4700 
Q 1616 4750 1894 4750 
Q 2613 4750 3031 4423 
Q 3450 4097 3450 3541 
Q 3450 3153 3228 2886 
Q 3006 2619 2597 2516 
z
" transform="scale(0.015625)"/>
      </defs>
      <use xlink:href="#DejaVuSans-62"/>
      <use xlink:href="#DejaVuSans-67" transform="translate(63.476562 0)"/>
      <use xlink:href="#DejaVuSans-65" transform="translate(126.953125 0)"/>
      <use xlink:href="#DejaVuSans-6d" transform="translate(188.476562 0)"/>
      <use xlink:href="#DejaVuSans-33" transform="translate(285.888672 0)"/>
     </g>
    </g>
    <g id="LineCollection_8">
     <path d="M 360.298437 147.142187 
L 360.298437 137.142187 
" style="fill: none; stroke: #ff7f0e; stroke-width: 1.5"/>
    </g>
    <g id="line2d_45">
     <g>
      <use xlink:href="#ma8a951383c" x="360.298437" y="147.142187" style="fill: #ff7f0e; stroke: #ff7f0e"/>
     </g>
    </g>
    <g id="line2d_46">
     <g>
      <use xlink:href="#ma8a951383c" x="360.298437" y="137.142187" style="fill: #ff7f0e; stroke: #ff7f0e"/>
     </g>
    </g>
    <g id="line2d_47">
     <path d="M 350.298437 142.142187 
L 370.298437 142.142187 
" style="fill: none; stroke: #ff7f0e; stroke-width: 1.5; stroke-linecap: square"/>
    </g>
    <g id="line2d_48">
     <g>
      <use xlink:href="#mac6f855322" x="360.298437" y="142.142187" style="fill: #ff7f0e; stroke: #ff7f0e"/>
     </g>
    </g>
    <g id="text_16">
     <!-- gte -->
     <g transform="translate(378.298437 145.642187) scale(0.1 -0.1)">
      <defs>
       <path id="DejaVuSans-74" d="M 1172 4494 
L 1172 3500 
L 2356 3500 
L 2356 3053 
L 1172 3053 
L 1172 1153 
Q 1172 725 1289 603 
Q 1406 481 1766 481 
L 2356 481 
L 2356 0 
L 1766 0 
Q 1100 0 847 248 
Q 594 497 594 1153 
L 594 3053 
L 172 3053 
L 172 3500 
L 594 3500 
L 594 4494 
L 1172 4494 
z
" transform="scale(0.015625)"/>
      </defs>
      <use xlink:href="#DejaVuSans-67"/>
      <use xlink:href="#DejaVuSans-74" transform="translate(63.476562 0)"/>
      <use xlink:href="#DejaVuSans-65" transform="translate(102.685547 0)"/>
     </g>
    </g>
    <g id="LineCollection_9">
     <path d="M 360.298437 161.820312 
L 360.298437 151.820312 
" style="fill: none; stroke: #2ca02c; stroke-width: 1.5"/>
    </g>
    <g id="line2d_49">
     <g>
      <use xlink:href="#m89e33c04ea" x="360.298437" y="161.820312" style="fill: #2ca02c; stroke: #2ca02c"/>
     </g>
    </g>
    <g id="line2d_50">
     <g>
      <use xlink:href="#m89e33c04ea" x="360.298437" y="151.820312" style="fill: #2ca02c; stroke: #2ca02c"/>
     </g>
    </g>
    <g id="line2d_51">
     <path d="M 350.298437 156.820312 
L 370.298437 156.820312 
" style="fill: none; stroke: #2ca02c; stroke-width: 1.5; stroke-linecap: square"/>
    </g>
    <g id="line2d_52">
     <g>
      <use xlink:href="#meadf26e493" x="360.298437" y="156.820312" style="fill: #2ca02c; stroke: #2ca02c"/>
     </g>
    </g>
    <g id="text_17">
     <!-- jina4 -->
     <g transform="translate(378.298437 160.320312) scale(0.1 -0.1)">
      <defs>
       <path id="DejaVuSans-6a" d="M 603 3500 
L 1178 3500 
L 1178 -63 
Q 1178 -731 923 -1031 
Q 669 -1331 103 -1331 
L -116 -1331 
L -116 -844 
L 38 -844 
Q 366 -844 484 -692 
Q 603 -541 603 -63 
L 603 3500 
z
M 603 4863 
L 1178 4863 
L 1178 4134 
L 603 4134 
L 603 4863 
z
" transform="scale(0.015625)"/>
       <path id="DejaVuSans-69" d="M 603 3500 
L 1178 3500 
L 1178 0 
L 603 0 
L 603 3500 
z
M 603 4863 
L 1178 4863 
L 1178 4134 
L 603 4134 
L 603 4863 
z
" transform="scale(0.015625)"/>
      </defs>
      <use xlink:href="#DejaVuSans-6a"/>
      <use xlink:href="#DejaVuSans-69" transform="translate(27.783203 0)"/>
      <use xlink:href="#DejaVuSans-6e" transform="translate(55.566406 0)"/>
      <use xlink:href="#DejaVuSans-61" transform="translate(118.945312 0)"/>
      <use xlink:href="#DejaVuSans-34" transform="translate(180.224609 0)"/>
     </g>
    </g>
    <g id="LineCollection_10">
     <path d="M 360.298437 176.498437 
L 360.298437 166.498437 
" style="fill: none; stroke: #d62728; stroke-width: 1.5"/>
    </g>
    <g id="line2d_53">
     <g>
      <use xlink:href="#m0f2b162d59" x="360.298437" y="176.498437" style="fill: #d62728; stroke: #d62728"/>
     </g>
    </g>
    <g id="line2d_54">
     <g>
      <use xlink:href="#m0f2b162d59" x="360.298437" y="166.498437" style="fill: #d62728; stroke: #d62728"/>
     </g>
    </g>
    <g id="line2d_55">
     <path d="M 350.298437 171.498437 
L 370.298437 171.498437 
" style="fill: none; stroke: #d62728; stroke-width: 1.5; stroke-linecap: square"/>
    </g>
    <g id="line2d_56">
     <g>
      <use xlink:href="#m3e2363e306" x="360.298437" y="171.498437" style="fill: #d62728; stroke: #d62728"/>
     </g>
    </g>
    <g id="text_18">
     <!-- mpnetbase2 -->
     <g transform="translate(378.298437 174.998437) scale(0.1 -0.1)">
      <defs>
       <path id="DejaVuSans-70" d="M 1159 525 
L 1159 -1331 
L 581 -1331 
L 581 3500 
L 1159 3500 
L 1159 2969 
Q 1341 3281 1617 3432 
Q 1894 3584 2278 3584 
Q 2916 3584 3314 3078 
Q 3713 2572 3713 1747 
Q 3713 922 3314 415 
Q 2916 -91 2278 -91 
Q 1894 -91 1617 61 
Q 1341 213 1159 525 
z
M 3116 1747 
Q 3116 2381 2855 2742 
Q 2594 3103 2138 3103 
Q 1681 3103 1420 2742 
Q 1159 2381 1159 1747 
Q 1159 1113 1420 752 
Q 1681 391 2138 391 
Q 2594 391 2855 752 
Q 3116 1113 3116 1747 
z
" transform="scale(0.015625)"/>
       <path id="DejaVuSans-73" d="M 2834 3397 
L 2834 2853 
Q 2591 2978 2328 3040 
Q 2066 3103 1784 3103 
Q 1356 3103 1142 2972 
Q 928 2841 928 2578 
Q 928 2378 1081 2264 
Q 1234 2150 1697 2047 
L 1894 2003 
Q 2506 1872 2764 1633 
Q 3022 1394 3022 966 
Q 3022 478 2636 193 
Q 2250 -91 1575 -91 
Q 1294 -91 989 -36 
Q 684 19 347 128 
L 347 722 
Q 666 556 975 473 
Q 1284 391 1588 391 
Q 1994 391 2212 530 
Q 2431 669 2431 922 
Q 2431 1156 2273 1281 
Q 2116 1406 1581 1522 
L 1381 1569 
Q 847 1681 609 1914 
Q 372 2147 372 2553 
Q 372 3047 722 3315 
Q 1072 3584 1716 3584 
Q 2034 3584 2315 3537 
Q 2597 3491 2834 3397 
z
" transform="scale(0.015625)"/>
      </defs>
      <use xlink:href="#DejaVuSans-6d"/>
      <use xlink:href="#DejaVuSans-70" transform="translate(97.412109 0)"/>
      <use xlink:href="#DejaVuSans-6e" transform="translate(160.888672 0)"/>
      <use xlink:href="#DejaVuSans-65" transform="translate(224.267578 0)"/>
      <use xlink:href="#DejaVuSans-74" transform="translate(285.791016 0)"/>
      <use xlink:href="#DejaVuSans-62" transform="translate(325 0)"/>
      <use xlink:href="#DejaVuSans-61" transform="translate(388.476562 0)"/>
      <use xlink:href="#DejaVuSans-73" transform="translate(449.755859 0)"/>
      <use xlink:href="#DejaVuSans-65" transform="translate(501.855469 0)"/>
      <use xlink:href="#DejaVuSans-32" transform="translate(563.378906 0)"/>
     </g>
    </g>
    <g id="LineCollection_11">
     <path d="M 360.298437 191.176562 
L 360.298437 181.176562 
" style="fill: none; stroke: #9467bd; stroke-width: 1.5"/>
    </g>
    <g id="line2d_57">
     <g>
      <use xlink:href="#mb41dd277a4" x="360.298437" y="191.176562" style="fill: #9467bd; stroke: #9467bd"/>
     </g>
    </g>
    <g id="line2d_58">
     <g>
      <use xlink:href="#mb41dd277a4" x="360.298437" y="181.176562" style="fill: #9467bd; stroke: #9467bd"/>
     </g>
    </g>
    <g id="line2d_59">
     <path d="M 350.298437 186.176562 
L 370.298437 186.176562 
" style="fill: none; stroke: #9467bd; stroke-width: 1.5; stroke-linecap: square"/>
    </g>
    <g id="line2d_60">
     <g>
      <use xlink:href="#me10c20efd9" x="360.298437" y="186.176562" style="fill: #9467bd; stroke: #9467bd"/>
     </g>
    </g>
    <g id="text_19">
     <!-- nomicv2 -->
     <g transform="translate(378.298437 189.676562) scale(0.1 -0.1)">
      <defs>
       <path id="DejaVuSans-6f" d="M 1959 3097 
Q 1497 3097 1228 2736 
Q 959 2375 959 1747 
Q 959 1119 1226 758 
Q 1494 397 1959 397 
Q 2419 397 2687 759 
Q 2956 1122 2956 1747 
Q 2956 2369 2687 2733 
Q 2419 3097 1959 3097 
z
M 1959 3584 
Q 2709 3584 3137 3096 
Q 3566 2609 3566 1747 
Q 3566 888 3137 398 
Q 2709 -91 1959 -91 
Q 1206 -91 779 398 
Q 353 888 353 1747 
Q 353 2609 779 3096 
Q 1206 3584 1959 3584 
z
" transform="scale(0.015625)"/>
       <path id="DejaVuSans-63" d="M 3122 3366 
L 3122 2828 
Q 2878 2963 2633 3030 
Q 2388 3097 2138 3097 
Q 1578 3097 1268 2742 
Q 959 2388 959 1747 
Q 959 1106 1268 751 
Q 1578 397 2138 397 
Q 2388 397 2633 464 
Q 2878 531 3122 666 
L 3122 134 
Q 2881 22 2623 -34 
Q 2366 -91 2075 -91 
Q 1284 -91 818 406 
Q 353 903 353 1747 
Q 353 2603 823 3093 
Q 1294 3584 2113 3584 
Q 2378 3584 2631 3529 
Q 2884 3475 3122 3366 
z
" transform="scale(0.015625)"/>
       <path id="DejaVuSans-76" d="M 191 3500 
L 800 3500 
L 1894 563 
L 2988 3500 
L 3597 3500 
L 2284 0 
L 1503 0 
L 191 3500 
z
" transform="scale(0.015625)"/>
      </defs>
      <use xlink:href="#DejaVuSans-6e"/>
      <use xlink:href="#DejaVuSans-6f" transform="translate(63.378906 0)"/>
      <use xlink:href="#DejaVuSans-6d" transform="translate(124.560547 0)"/>
      <use xlink:href="#DejaVuSans-69" transform="translate(221.972656 0)"/>
      <use xlink:href="#DejaVuSans-63" transform="translate(249.755859 0)"/>
      <use xlink:href="#DejaVuSans-76" transform="translate(304.736328 0)"/>
      <use xlink:href="#DejaVuSans-32" transform="translate(363.916016 0)"/>
     </g>
    </g>
    <g id="LineCollection_12">
     <path d="M 360.298437 205.854687 
L 360.298437 195.854687 
" style="fill: none; stroke: #8c564b; stroke-width: 1.5"/>
    </g>
    <g id="line2d_61">
     <g>
      <use xlink:href="#m05010fefb3" x="360.298437" y="205.854687" style="fill: #8c564b; stroke: #8c564b"/>
     </g>
    </g>
    <g id="line2d_62">
     <g>
      <use xlink:href="#m05010fefb3" x="360.298437" y="195.854687" style="fill: #8c564b; stroke: #8c564b"/>
     </g>
    </g>
    <g id="line2d_63">
     <path d="M 350.298437 200.854687 
L 370.298437 200.854687 
" style="fill: none; stroke: #8c564b; stroke-width: 1.5; stroke-linecap: square"/>
    </g>
    <g id="line2d_64">
     <g>
      <use xlink:href="#m9a6cf9ec29" x="360.298437" y="200.854687" style="fill: #8c564b; stroke: #8c564b"/>
     </g>
    </g>
    <g id="text_20">
     <!-- qwen34b -->
     <g transform="translate(378.298437 204.354687) scale(0.1 -0.1)">
      <defs>
       <path id="DejaVuSans-71" d="M 947 1747 
Q 947 1113 1208 752 
Q 1469 391 1925 391 
Q 2381 391 2643 752 
Q 2906 1113 2906 1747 
Q 2906 2381 2643 2742 
Q 2381 3103 1925 3103 
Q 1469 3103 1208 2742 
Q 947 2381 947 1747 
z
M 2906 525 
Q 2725 213 2448 61 
Q 2172 -91 1784 -91 
Q 1150 -91 751 415 
Q 353 922 353 1747 
Q 353 2572 751 3078 
Q 1150 3584 1784 3584 
Q 2172 3584 2448 3432 
Q 2725 3281 2906 2969 
L 2906 3500 
L 3481 3500 
L 3481 -1331 
L 2906 -1331 
L 2906 525 
z
" transform="scale(0.015625)"/>
       <path id="DejaVuSans-77" d="M 269 3500 
L 844 3500 
L 1563 769 
L 2278 3500 
L 2956 3500 
L 3675 769 
L 4391 3500 
L 4966 3500 
L 4050 0 
L 3372 0 
L 2619 2869 
L 1863 0 
L 1184 0 
L 269 3500 
z
" transform="scale(0.015625)"/>
      </defs>
      <use xlink:href="#DejaVuSans-71"/>
      <use xlink:href="#DejaVuSans-77" transform="translate(63.476562 0)"/>
      <use xlink:href="#DejaVuSans-65" transform="translate(145.263672 0)"/>
      <use xlink:href="#DejaVuSans-6e" transform="translate(206.787109 0)"/>
      <use xlink:href="#DejaVuSans-33" transform="translate(270.166016 0)"/>
      <use xlink:href="#DejaVuSans-34" transform="translate(333.789062 0)"/>
      <use xlink:href="#DejaVuSans-62" transform="translate(397.412109 0)"/>
     </g>
    </g>
   </g>
  </g>
 </g>
 <defs>
  <clipPath id="pb883fc76cc">
   <rect x="47.855" y="26.16" width="402.145" height="277.48"/>
  </clipPath>
 </defs>
</svg>
